<svg width="29" height="29" viewBox="0 0 29 29" fill="none" xmlns="http://www.w3.org/2000/svg">
<g clip-path="url(#clip0_17_1710)">
<path d="M26.9578 1.01049C25.8154 0.312681 20.4323 3.2376 17.1145 6.10453C16.2138 5.99255 15.307 5.93701 14.3994 5.93823C13.551 5.9375 12.7033 5.98591 11.8605 6.08323C8.54095 3.22265 3.18139 0.314494 2.04178 1.01049C0.674699 1.84515 0.525167 9.71502 1.68471 14.085C1.10018 16.0742 0.975574 18.091 0.975574 19.7037C0.975574 21.7405 6.98673 28.0938 14.3994 28.0938C21.8125 28.0938 27.8232 21.7405 27.8232 19.7037C27.8232 18.188 27.7136 16.3148 27.2151 14.4434C28.4825 10.1609 28.3634 1.86871 26.9578 1.01049ZM20.4368 14.2848C20.1872 14.5698 19.9882 15.2649 19.9882 16.3737C19.9882 19.3566 21.4265 19.3566 21.4265 16.3737C21.4265 15.0936 21.1618 14.3664 20.8592 14.1847C23.2584 13.7415 24.5426 15.7371 24.5426 15.7371C24.5426 15.7371 24.4325 18.3176 21.8288 19.0109C19.2256 19.7033 17.8309 17.5233 17.8309 17.5233C17.8309 17.5233 17.9428 15.0216 20.4368 14.2848ZM10.9688 17.5233C10.9688 17.5233 9.57362 19.7037 6.96996 19.0109C4.36721 18.3181 4.25711 15.7371 4.25711 15.7371C4.25711 15.7371 5.54217 13.7419 7.9401 14.1847C7.63787 14.3664 7.37279 15.0936 7.37279 16.3737C7.37279 19.3566 8.81146 19.3566 8.81146 16.3737C8.81146 15.2649 8.61254 14.5698 8.36287 14.2852C10.8564 15.0216 10.9688 17.5233 10.9688 17.5233ZM4.32009 5.12895C4.65132 4.92595 6.52681 5.74701 8.37193 6.8694C6.30115 7.61434 4.80176 8.75168 3.72061 10.0884C3.66396 7.71267 3.93493 5.36367 4.32009 5.12895ZM14.3994 27.6184C8.95918 27.6184 3.68934 23.0029 3.68889 23.0029C3.68889 23.0029 8.62704 21.3667 10.4808 19.9235C11.6503 19.0127 12.9435 15.9944 14.3994 15.9944C15.8553 15.9944 17.149 19.0127 18.3185 19.9235C20.1718 21.3667 25.1104 23.0029 25.1104 23.0029C25.1099 23.0034 19.8396 27.6184 14.3994 27.6184ZM25.2717 10.3349C24.1991 8.91934 22.6821 7.70813 20.5515 6.91652C22.4215 5.77057 24.3432 4.92368 24.6794 5.1294C25.0787 5.37137 25.3546 7.87715 25.2717 10.3349Z" fill="#FFFFFF"/>
<path d="M16.7961 24.3939C16.3076 24.3572 15.8454 24.2004 15.4748 23.9005C15.1041 23.6114 14.8304 23.1981 14.7516 22.7432L14.7267 22.5964C14.9908 22.5289 15.2854 22.3734 15.5899 22.073C16.2822 21.3888 16.4839 20.5972 16.2229 20.2773C15.8567 19.8296 14.7348 19.7952 14.3995 19.7952C14.0646 19.7952 12.9418 19.8296 12.5761 20.2773C12.3165 20.5972 12.5172 21.3888 13.21 22.073C13.5141 22.3734 13.8086 22.5289 14.0723 22.5964L14.047 22.7432C13.9668 23.1977 13.6953 23.6118 13.3233 23.9C12.9604 24.1995 12.4746 24.3559 12.0138 24.3926C11.5049 24.4152 11.0264 24.3074 10.5869 24.0391C10.1254 23.7609 9.77748 23.328 9.60498 22.8175C9.63036 23.3934 9.93939 23.9549 10.3834 24.3418C10.823 24.7288 11.4243 24.9563 11.9911 24.9816C12.5707 25.0143 13.1289 24.8534 13.6237 24.5376C13.6192 24.5861 13.6138 24.6341 13.6138 24.6839C13.6138 25.321 13.9659 25.8376 14.3995 25.8376C14.8331 25.8376 15.1857 25.321 15.1857 24.6839C15.1857 24.6336 15.1798 24.5852 15.1757 24.5367C15.666 24.852 16.2428 25.0138 16.7965 24.9807C17.3924 24.9544 17.9623 24.7291 18.4151 24.3409C18.8582 23.9539 19.1677 23.393 19.194 22.8175C19.0218 23.3284 18.6738 23.7616 18.2121 24.04C17.7794 24.3083 17.2791 24.4175 16.7961 24.3939Z" fill="#FFFFFF"/>
</g>
<defs>
<clipPath id="clip0_17_1710">
<rect width="29" height="29" fill="#F8767676"/>
</clipPath>
</defs>
</svg>
