<svg width="29" height="29" viewBox="0 0 29 29" fill="none" xmlns="http://www.w3.org/2000/svg">
<g clip-path="url(#clip0_26_405)">
<path d="M28.0829 4.15833C25.5213 4.07405 23.4179 4.47733 22.1592 5.35277C22.0604 5.51816 21.9679 5.69805 21.8814 5.89198C21.7477 5.70937 21.6095 5.53311 21.4659 5.36591C21.9 4.47778 22.161 3.07717 21.9507 0.90625C21.9507 0.90625 20.889 2.68477 19.2524 3.54978C19.2379 3.55748 19.2265 3.56655 19.2125 3.57425C17.8984 2.89048 16.3324 2.552 14.5 2.552C12.7745 2.552 11.252 2.94803 9.94608 3.70656C9.86905 3.65264 9.79473 3.59827 9.70366 3.54978C8.06652 2.68477 7.00439 0.90625 7.00439 0.90625C6.76877 3.34497 7.12492 4.81717 7.65644 5.67539C7.51274 5.85038 7.37506 6.03022 7.24364 6.21461C7.12175 5.89833 6.9908 5.60289 6.84081 5.35231C5.58158 4.47688 3.47862 4.07405 0.917109 4.15787C0.85775 6.98039 1.01544 9.46216 2.054 10.5805C2.67614 11.2506 3.73645 11.5733 5.02605 11.7097C5.00928 11.7935 4.99387 11.8787 4.97802 11.9634C4.79319 11.9801 4.60699 11.9734 4.42384 11.9435C4.42384 11.9435 4.5693 12.1863 4.90325 12.3685C4.66037 13.7986 4.53486 15.3718 4.53486 17.0801C4.53486 18.6787 5.11667 20.2375 6.25492 21.7165C6.36911 27.4236 11.0023 28.0938 14.5009 28.0938C17.9986 28.0938 22.6304 27.4236 22.7446 21.7178C23.8837 20.2388 24.4656 18.6796 24.4656 17.0805C24.4656 15.3328 24.365 13.7523 24.1651 12.33C24.4511 12.1546 24.5761 11.9439 24.5761 11.9439C24.4039 11.9707 24.2549 11.9743 24.113 11.9679C24.0994 11.8773 24.0836 11.7894 24.0686 11.7006C25.3156 11.5588 26.3397 11.2352 26.9469 10.5809C27.9854 9.46216 28.1427 6.98039 28.0829 4.15833ZM21.9602 13.1973C21.9602 12.8126 21.8465 12.4605 21.6616 12.1737C21.8605 12.2144 22.0645 12.2675 22.2756 12.3499C22.562 12.4614 22.8148 12.5208 23.0418 12.5461C23.0047 12.9222 22.7392 14.635 20.9511 15.1366C18.9397 15.7008 17.8626 13.9245 17.8626 13.9245C17.8626 13.9245 18.2704 13.3024 18.9986 12.784C18.968 12.9197 18.9519 13.0582 18.9506 13.1973C18.9506 14.1506 19.6239 14.9237 20.455 14.9237C21.286 14.9237 21.9602 14.1506 21.9602 13.1973ZM14.5 3.45825C16.4697 3.45825 18.5749 3.79673 20.2601 5.38584C17.2296 8.70952 15.2563 12.9055 18.3728 16.7629C19.2329 17.8287 20.0204 18.4558 20.7572 18.8002C20.7241 18.7997 20.6933 18.7965 20.6593 18.7965C20.1668 18.7965 19.5868 18.8663 18.8527 18.9551C17.7213 19.0915 16.3134 19.2614 14.5009 19.2614C12.6884 19.2614 11.2805 19.0915 10.1491 18.9551C9.41456 18.8668 8.83456 18.7965 8.34202 18.7965C8.30758 18.7965 8.27722 18.7997 8.24414 18.8002C8.98047 18.4558 9.768 17.8282 10.6285 16.7629C13.6694 12.9979 11.8642 8.91252 8.96008 5.62872C10.4046 4.20908 12.2661 3.45825 14.5 3.45825ZM7.33925 12.1737C7.14316 12.479 7.03946 12.8344 7.04064 13.1973C7.04064 14.1506 7.71444 14.9237 8.54547 14.9237C9.3765 14.9237 10.0498 14.1511 10.0498 13.1973C10.0498 13.0545 10.0304 12.9172 10.0018 12.784C10.7295 13.3024 11.1378 13.9245 11.1378 13.9245C11.1378 13.9245 10.0607 15.7008 8.0493 15.1366C6.26127 14.6355 5.99573 12.9222 5.95858 12.5461C6.22147 12.5145 6.47908 12.4485 6.72481 12.3499C6.9242 12.2737 7.12977 12.2147 7.33925 12.1737ZM2.37481 10.3371C1.64709 9.55369 1.53653 7.81595 1.58003 5.83987C3.37259 5.78142 4.8457 6.06281 5.72703 6.67634C5.93184 7.01891 6.09905 7.45436 6.22728 7.96503C5.77823 8.91795 5.41573 9.9905 5.14295 11.1745C3.93356 11.1269 2.9172 10.9199 2.37481 10.3371ZM7.01255 19.1414C6.67044 19.386 6.47152 19.7553 6.36412 20.2293C6.36186 20.2393 6.35778 20.2474 6.35552 20.2579C6.13271 19.8805 5.94552 19.4832 5.79636 19.0711C6.19629 19.1527 6.60588 19.1764 7.01255 19.1414ZM14.5009 27.1875C9.35294 27.1875 7.15619 25.4878 7.15619 21.5049C7.15619 19.7839 7.56264 19.7032 8.34156 19.7032C8.78019 19.7032 9.33572 19.7703 10.0403 19.8555C11.1963 19.9946 12.6345 20.1677 14.5009 20.1677C16.3673 20.1677 17.8055 19.9941 18.9605 19.8555C19.6652 19.7703 20.2207 19.7032 20.6593 19.7032C21.4378 19.7032 21.8438 19.7839 21.8438 21.5049C21.8438 25.4878 19.6479 27.1875 14.5009 27.1875ZM22.6449 20.2592C22.6431 20.2497 22.6395 20.2429 22.6368 20.2329C22.5298 19.7572 22.3304 19.3865 21.9879 19.1414C22.3948 19.1762 22.8047 19.1527 23.205 19.0716C23.0555 19.484 22.868 19.8816 22.6449 20.2592ZM23.9735 11.1673C23.7134 9.81605 23.3495 8.6275 22.8774 7.60162C22.9884 7.24728 23.1189 6.93327 23.2734 6.67589C24.1547 6.06236 25.6278 5.78097 27.4204 5.83942C27.463 7.8155 27.3524 9.55323 26.6247 10.3367C26.1009 10.9004 25.1312 11.1111 23.9735 11.1673Z" fill="#FFFFFF"/>
<path d="M9.6852 20.455C8.96791 20.9203 8.81792 22.5153 9.35216 24.0165C9.88639 25.5186 10.9032 26.3578 11.621 25.8925C12.3387 25.4271 12.4882 23.8321 11.9526 22.3304C11.4189 20.8283 10.4039 19.9887 9.6852 20.455ZM19.3159 20.455C18.5973 19.9891 17.5818 20.8283 17.0485 22.3304C16.5138 23.8321 16.6629 25.4285 17.3802 25.8925C18.0988 26.3578 19.1129 25.5191 19.6485 24.0174C20.1832 22.5149 20.0332 20.9203 19.3159 20.455Z" fill="#FFFFFF"/>
</g>
<defs>
<clipPath id="clip0_26_405">
<rect width="29" height="29" fill="#F87676"/>
</clipPath>
</defs>
</svg>
