<svg width="12" height="12" viewBox="0 0 12 12" fill="none" xmlns="http://www.w3.org/2000/svg">
<path d="M5.43796 4.3305C5.63146 4.4385 5.86196 4.5 6.12296 4.5C6.54646 4.5 6.90046 4.3465 7.14646 4.078C7.38696 3.815 7.49796 3.47 7.49796 3.125C7.49796 3.02554 7.45845 2.93016 7.38812 2.85983C7.3178 2.78951 7.22241 2.75 7.12296 2.75C7.0235 2.75 6.92812 2.78951 6.85779 2.85983C6.78747 2.93016 6.74796 3.02554 6.74796 3.125C6.74796 3.3135 6.68796 3.468 6.59296 3.572C6.50296 3.67 6.35696 3.75 6.12296 3.75C5.89846 3.75 5.75796 3.669 5.66596 3.565C5.56762 3.44607 5.50951 3.29903 5.49996 3.145V2.125C5.49996 1.82663 5.61848 1.54048 5.82946 1.3295C6.04044 1.11853 6.32659 1 6.62496 1H8.21746C8.47196 1 8.72096 1.0705 8.93746 1.204L10.3215 2.0555C10.376 2.08907 10.4211 2.13606 10.4523 2.192C10.4836 2.24793 10.5 2.31093 10.5 2.375V3.125C10.5 3.42337 10.3814 3.70952 10.1705 3.9205C9.95947 4.13147 9.67333 4.25 9.37496 4.25H9.24996V9.0165C9.70996 9.0605 10.059 9.1995 10.2735 9.4985C10.402 9.678 10.4535 9.8785 10.4775 10.063C10.5 10.239 10.5 10.431 10.5 10.608V10.625C10.5 10.7245 10.4604 10.8198 10.3901 10.8902C10.3198 10.9605 10.2244 11 10.125 11H8.49896V10.613C8.49896 10.327 8.49996 9.509 7.74896 9.0285V7.6265C7.74896 7.52704 7.70945 7.43166 7.63912 7.36133C7.5688 7.29101 7.47341 7.2515 7.37396 7.2515C7.2745 7.2515 7.17912 7.29101 7.10879 7.36133C7.03847 7.43166 6.99896 7.52704 6.99896 7.6265V8.7595C6.88323 8.74706 6.76674 8.74339 6.65046 8.7485C6.63746 8.7485 6.62596 8.7495 6.61846 8.75H6.60596L6.60446 8.7505C6.50513 8.75594 6.41204 8.80061 6.34565 8.87468C6.27926 8.94876 6.24502 9.04618 6.25046 9.1455C6.2559 9.24482 6.30057 9.33792 6.37464 9.40431C6.44872 9.4707 6.54613 9.50494 6.64546 9.4995H6.64696L6.65346 9.499L6.67846 9.498C6.69896 9.497 6.72496 9.4965 6.74896 9.4965C6.96496 9.4965 7.10646 9.533 7.19946 9.5815L7.21596 9.59C7.73546 9.832 7.74896 10.3095 7.74896 10.625V11H2.91646C2.49692 11.0004 2.08885 10.8631 1.75487 10.6091C1.4209 10.3552 1.17947 9.99873 1.06763 9.59437C0.955801 9.19001 0.979743 8.76012 1.13579 8.37068C1.29183 7.98124 1.57135 7.65376 1.93146 7.4385C2.01679 7.38731 2.11896 7.37212 2.2155 7.39627C2.31203 7.42041 2.39502 7.48192 2.44621 7.56725C2.49739 7.65258 2.51259 7.75476 2.48844 7.85129C2.4643 7.94782 2.40279 8.03081 2.31746 8.082C2.09819 8.21295 1.92796 8.41223 1.83289 8.64927C1.73782 8.8863 1.72317 9.14799 1.79118 9.39416C1.85919 9.64032 2.00612 9.85737 2.20939 10.012C2.41267 10.1666 2.66107 10.2502 2.91646 10.25C3.07596 10.25 3.17496 10.2085 3.24096 10.162C3.31046 10.113 3.36496 10.043 3.40646 9.9585C3.45886 9.85033 3.49057 9.73332 3.49996 9.6135V9.596L3.50196 9.5245C3.51691 9.15718 3.56038 8.79158 3.63196 8.431C3.76196 7.7855 4.03046 6.947 4.60796 6.3615C5.03196 5.9315 5.26246 5.302 5.38146 4.6795C5.40446 4.5605 5.42296 4.4435 5.43796 4.3305Z" fill="#F87676"/>
</svg>
