<svg width="29" height="29" viewBox="0 0 29 29" fill="none" xmlns="http://www.w3.org/2000/svg">
<path d="M22.5746 3.24483C21.4499 2.51937 20.7381 2.83113 20.3923 3.11252C20.0049 2.85152 19.6161 2.63266 19.2305 2.47905C18.1693 2.05583 16.4443 1.8125 14.4999 1.8125C12.5546 1.8125 10.8305 2.05583 9.76882 2.4795C9.38321 2.63311 8.99352 2.85242 8.6061 3.11342C8.25946 2.83248 7.54896 2.52255 6.42521 3.24709C3.98785 4.81672 -1.23351 4.19458 1.85725 10.9606C2.35388 12.0468 2.73632 12.8144 3.07208 13.2412C3.04127 17.1653 4.33403 22.3028 6.90099 23.9712C9.95641 25.9568 12.3312 27.1875 14.7265 27.1875C17.1208 27.1875 19.4961 25.9568 22.551 23.9708C25.1547 22.2797 26.1103 17.0497 25.9671 13.1877C26.2929 12.7523 26.6654 12.0028 27.1425 10.9584C30.2328 4.19231 25.0119 4.81445 22.5746 3.24483ZM22.0571 23.2113C19.1408 25.1063 16.8974 26.2812 14.7265 26.2812C12.5551 26.2812 10.3112 25.1063 7.39489 23.2113C5.22125 21.7985 4.02364 17.1086 3.98694 13.4809C4.39068 13.1216 4.82568 12.1247 5.44283 10.4246C5.94535 9.03894 5.92768 7.99494 6.0541 7.05742C7.21319 5.39309 8.72572 3.8715 10.105 3.32095C11.0489 2.94395 12.6924 2.71875 14.4999 2.71875C16.3074 2.71875 17.95 2.94395 18.8952 3.32095C20.275 3.8715 21.7884 5.394 22.9466 7.05923C23.0721 7.99539 23.0553 9.03894 23.5574 10.4223C24.2158 12.2348 24.6662 13.248 25.0931 13.5403C25.1819 17.2079 24.1968 21.8211 22.0571 23.2113Z" fill="white"/>
<path d="M10.9878 13.925C10.9878 12.2978 9.66648 10.9742 8.04248 10.9742C6.41848 10.9742 5.09717 12.2978 5.09717 13.925C5.09717 15.5526 6.41848 16.8766 8.04248 16.8766C9.66648 16.8766 10.9878 15.5526 10.9878 13.925ZM6.19826 15.5997C6.5391 15.8399 6.94586 15.9687 7.36279 15.9686C8.48881 15.9686 9.40186 15.0542 9.40186 13.925C9.40234 13.3837 9.18779 12.8643 8.80541 12.4812C8.42302 12.098 7.90411 11.8825 7.36279 11.8819C6.9287 11.8819 6.52859 12.0201 6.19781 12.2516C6.43027 11.9925 6.71465 11.7852 7.03245 11.6432C7.35026 11.5012 7.69439 11.4277 8.04248 11.4274C9.41636 11.4274 10.5347 12.5479 10.5347 13.925C10.5347 15.3025 9.41636 16.4235 8.04248 16.4235C7.6945 16.4232 7.35048 16.3497 7.03276 16.2078C6.71503 16.0659 6.43071 15.8587 6.19826 15.5997ZM20.957 10.9742C19.333 10.9742 18.0117 12.2978 18.0117 13.925C18.0117 15.5526 19.333 16.8766 20.957 16.8766C22.581 16.8766 23.9023 15.5526 23.9023 13.925C23.9023 12.2983 22.581 10.9742 20.957 10.9742ZM20.957 16.4235C19.5836 16.4235 18.4648 15.3025 18.4648 13.925C18.4648 12.5479 19.5836 11.4274 20.957 11.4274C21.6888 11.4274 22.3454 11.7468 22.8021 12.2516C22.4611 12.0111 22.054 11.882 21.6367 11.8819C21.0954 11.8825 20.5765 12.098 20.1941 12.4812C19.8117 12.8643 19.5971 13.3837 19.5976 13.925C19.5973 14.1931 19.6498 14.4586 19.7521 14.7063C19.8545 14.9541 20.0046 15.1793 20.1939 15.3691C20.3833 15.5589 20.6081 15.7095 20.8557 15.8123C21.1032 15.9152 21.3686 15.9683 21.6367 15.9686C22.0703 15.9686 22.4713 15.8308 22.8012 15.5997C22.5688 15.8588 22.2845 16.066 21.9668 16.2079C21.649 16.3498 21.305 16.4233 20.957 16.4235Z" fill="white"/>
<path d="M18.6029 15.7583C17.6319 14.7474 16.1366 14.1674 14.4985 14.1674C12.8618 14.1674 11.3674 14.7469 10.3991 15.7587L7.16107 19.1477C6.16148 20.1939 6.16148 21.8954 7.16107 22.9426C7.64773 23.4514 8.2966 23.7319 8.98762 23.7319C9.55158 23.7312 10.0987 23.5398 10.54 23.1886L11.7712 24.4778C12.4182 25.1516 13.4128 25.5376 14.5003 25.5376C15.5874 25.5376 16.5811 25.1511 17.2263 24.4773L18.4593 23.1877C18.9003 23.5395 19.4476 23.7313 20.0117 23.7319C20.7027 23.7319 21.3516 23.4514 21.8392 22.9421C22.8374 21.8954 22.8374 20.1939 21.8392 19.1477L18.6029 15.7583ZM16.8992 24.1637C16.34 24.7487 15.4646 25.084 14.5008 25.084C13.5356 25.084 12.6597 24.7487 12.0988 24.1642L10.874 22.8814L12.082 21.6176L12.5614 21.1169C12.3457 21.7468 12.2687 22.2665 12.3371 22.6635C12.5514 23.9145 13.5778 24.4741 14.4999 24.4741C15.4224 24.4741 16.4488 23.9145 16.6631 22.6639C16.7311 22.2661 16.654 21.7463 16.4384 21.1151L18.1262 22.8805L16.8992 24.1637ZM21.5111 22.629C21.3187 22.8338 21.0864 22.9971 20.8285 23.1088C20.5707 23.2206 20.2927 23.2784 20.0117 23.2788C19.4965 23.2788 19.0135 23.079 18.6265 22.7273L18.6025 22.7051C18.5732 22.6786 18.5428 22.6532 18.5114 22.629L15.6359 19.6207L15.2738 19.2415C15.0817 19.0412 14.8003 18.9261 14.4999 18.9261C14.1995 18.9261 13.9181 19.0412 13.7269 19.241L13.3639 19.6207L10.4553 22.6562C10.435 22.6722 10.4152 22.6888 10.3959 22.706L10.3733 22.7273C9.98676 23.0785 9.50373 23.2788 8.98762 23.2788C8.42121 23.2788 7.88879 23.0477 7.48868 22.629C6.65403 21.7549 6.65403 20.3339 7.48868 19.4603L10.7267 16.0718C11.6094 15.1497 12.9846 14.6205 14.4985 14.6205C16.0133 14.6205 17.3904 15.1497 18.2753 16.0714L21.5111 19.4603C22.3453 20.3339 22.3453 21.7558 21.5111 22.629Z" fill="white"/>
<path d="M14.5001 14.7316C13.0242 14.7316 11.8275 14.9618 11.8275 16.1557C11.8275 17.1046 13.9536 17.946 14.5001 17.946C15.0456 17.946 17.173 17.1046 17.173 16.1557C17.1726 14.9618 15.9763 14.7316 14.5001 14.7316ZM11.47 17.6723L11.0169 17.2183L10.5638 17.6733L11.0169 18.1273L11.47 17.6723ZM9.93799 19.3752L9.48486 18.9221L9.93844 18.4685L10.3916 18.9216L9.93799 19.3752ZM10.9036 19.3761L11.3567 19.8301L11.8098 19.3752L11.3567 18.9212L10.9036 19.3761ZM17.5296 17.6723L17.9828 18.1273L18.4359 17.6733L17.9828 17.2183L17.5296 17.6723ZM19.0617 19.3747L18.6085 18.9207L19.0617 18.468L19.5148 18.9225L19.0617 19.3747ZM17.1898 19.3752L17.6429 19.8301L18.0961 19.3761L17.6429 18.9212L17.1898 19.3752Z" fill="white"/>
</svg>
