<svg width="30" height="29" viewBox="0 0 30 29" fill="none" xmlns="http://www.w3.org/2000/svg">
<path d="M12.9238 2.90243C11.5413 4.28498 10.7416 6.12747 10.283 7.97548C9.8231 9.8304 9.68774 11.7696 9.68912 13.4297C9.68806 13.5476 9.64094 13.6604 9.55785 13.744C9.47475 13.8276 9.36225 13.8754 9.24439 13.8772C6.79833 13.8869 3.69759 14.1811 1.18938 15.3786C0.247416 15.8288 -0.146219 16.757 0.0485266 17.6368C0.232223 18.46 0.897949 19.1354 1.79847 19.355C2.89651 19.6229 4.16995 19.9696 5.27765 20.3632C5.8315 20.5594 6.32735 20.761 6.73065 20.9627C7.14776 21.1712 7.40328 21.3494 7.52897 21.4751C7.65465 21.6021 7.83283 21.8563 8.04138 22.2734C8.24303 22.6767 8.44469 23.1712 8.64081 23.7236C9.03307 24.8313 9.37836 26.1034 9.64631 27.2014C9.86591 28.1019 10.5413 28.7677 11.3659 28.9514C12.2457 29.1461 13.1738 28.7539 13.6241 27.8119C14.8216 25.3065 15.1158 22.2126 15.1296 19.7693C15.1296 19.5276 15.3326 19.326 15.5757 19.326C17.2359 19.326 19.175 19.1906 21.0313 18.7307C22.8821 18.2708 24.7246 17.4711 26.1085 16.0857C27.6554 14.5402 28.4123 12.4836 28.7562 10.4851C29.1015 8.47961 29.0449 6.44376 28.8874 4.83193C28.7758 3.62063 28.2437 2.48663 27.3834 1.62662C26.5231 0.766599 25.389 0.234815 24.1776 0.123502C22.5672 -0.0339516 20.5313 -0.0891985 18.5259 0.254714C16.5273 0.598626 14.4707 1.35551 12.9238 2.90243ZM20.7178 4.14134C21.0841 4.14134 21.4354 4.28685 21.6944 4.54588C21.9535 4.8049 22.099 5.1562 22.099 5.52251C22.099 5.88882 21.9535 6.24013 21.6944 6.49915C21.4354 6.75817 21.0841 6.90369 20.7178 6.90369C20.3515 6.90369 20.0002 6.75817 19.7412 6.49915C19.4821 6.24013 19.3366 5.88882 19.3366 5.52251C19.3366 5.1562 19.4821 4.8049 19.7412 4.54588C20.0002 4.28685 20.3515 4.14134 20.7178 4.14134Z" fill="#FFFFFF"/>
</svg>
