<svg width="29" height="29" viewBox="0 0 29 29" fill="none" xmlns="http://www.w3.org/2000/svg">
<path d="M26.1 9.425C26.1 10.3864 25.7181 11.3084 25.0383 11.9883C24.3584 12.6681 23.4364 13.05 22.475 13.05C20.909 13.05 19.575 12.0495 19.082 10.672C18.444 11.2375 17.603 11.6 16.675 11.6C15.863 11.6 15.109 11.3245 14.5 10.875C13.891 11.3245 13.1515 11.6 12.325 11.6C11.397 11.6 10.556 11.2375 9.918 10.672C9.425 12.0495 8.091 13.05 6.525 13.05C5.56359 13.05 4.64156 12.6681 3.96174 11.9883C3.28192 11.3084 2.9 10.3864 2.9 9.425C2.9 7.627 4.2195 6.1335 5.945 5.858C5.858 5.6115 5.8 5.3505 5.8 5.075C5.8 4.49815 6.02915 3.94493 6.43704 3.53704C6.84493 3.12915 7.39815 2.9 7.975 2.9C8.265 2.9 8.5405 2.958 8.787 3.0595C9.0335 2.1315 9.8745 1.45 10.875 1.45C11.2375 1.45 11.6 1.5515 11.861 1.6965C12.325 0.725 13.3255 0 14.5 0C15.6745 0 16.675 0.725 17.139 1.6965C17.4 1.5515 17.7625 1.45 18.125 1.45C19.1255 1.45 19.9665 2.1315 20.213 3.0595C20.4595 2.958 20.735 2.9 21.025 2.9C21.6018 2.9 22.1551 3.12915 22.563 3.53704C22.9708 3.94493 23.2 4.49815 23.2 5.075C23.2 5.3505 23.142 5.6115 23.055 5.858C24.7805 6.1335 26.1 7.627 26.1 9.425ZM11.6 14.5C11.2154 14.5 10.8466 14.6528 10.5747 14.9247C10.3028 15.1966 10.15 15.5654 10.15 15.95C10.15 16.3346 10.3028 16.7034 10.5747 16.9753C10.8466 17.2472 11.2154 17.4 11.6 17.4C11.9846 17.4 12.3534 17.2472 12.6253 16.9753C12.8972 16.7034 13.05 16.3346 13.05 15.95C13.05 15.5654 12.8972 15.1966 12.6253 14.9247C12.3534 14.6528 11.9846 14.5 11.6 14.5ZM17.4 14.5C17.0154 14.5 16.6466 14.6528 16.3747 14.9247C16.1028 15.1966 15.95 15.5654 15.95 15.95C15.95 16.3346 16.1028 16.7034 16.3747 16.9753C16.6466 17.2472 17.0154 17.4 17.4 17.4C17.7846 17.4 18.1534 17.2472 18.4253 16.9753C18.6972 16.7034 18.85 16.3346 18.85 15.95C18.85 15.5654 18.6972 15.1966 18.4253 14.9247C18.1534 14.6528 17.7846 14.5 17.4 14.5ZM26.4335 12.557C25.5055 13.7315 24.0845 14.5 22.475 14.5C21.8225 14.5 21.199 14.355 20.6045 14.1085C20.59 17.806 20.0535 22.272 18.0525 24.5775C17.2985 25.433 16.385 25.897 15.225 26.042V23.2H13.775V26.042C12.615 25.897 11.7015 25.4475 10.9475 24.5775C8.932 22.2575 8.3955 17.8205 8.381 14.123C7.801 14.355 7.1775 14.5 6.525 14.5C4.9155 14.5 3.4945 13.7315 2.5665 12.557C1.276 13.8475 0 14.5 0 14.5C0 14.5 1.45 17.4 4.35 17.4C4.872 17.4 5.278 17.342 5.626 17.2695C6.119 22.8085 8.091 29 14.5 29C20.909 29 22.881 22.8085 23.374 17.2695C23.722 17.342 24.128 17.4 24.65 17.4C27.55 17.4 29 14.5 29 14.5C29 14.5 27.724 13.8475 26.4335 12.557Z" fill="#FFFFFF"/>
</svg>
