<svg width="29" height="29" viewBox="0 0 29 29" fill="none" xmlns="http://www.w3.org/2000/svg">
<g clip-path="url(#clip0_19_1729)">
<path d="M25.8181 22.0903L25.5516 21.8552C24.7955 21.1815 24.1336 20.4089 23.5839 19.5583C22.9836 18.3844 22.6238 17.1024 22.5256 15.7875V11.9149C22.5308 9.84976 21.7817 7.85377 20.419 6.30197C19.0563 4.75018 17.1739 3.74941 15.1253 3.48769V2.47642C15.1253 2.19886 15.0151 1.93266 14.8188 1.7364C14.6225 1.54013 14.3564 1.42987 14.0788 1.42987C13.8012 1.42987 13.535 1.54013 13.3388 1.7364C13.1425 1.93266 13.0322 2.19886 13.0322 2.47642V3.50337C11.0021 3.78396 9.14236 4.79078 7.79758 6.33736C6.45279 7.88393 5.71405 9.86546 5.71818 11.9149V15.7875C5.62 17.1024 5.26019 18.3844 4.65987 19.5583C4.11965 20.4067 3.46845 21.1792 2.72357 21.8552L2.45703 22.0903V24.301H25.8181V22.0903Z" fill="#F87676"/>
<path d="M12.3411 25.7778C12.4117 26.2884 12.6647 26.7562 13.0534 27.0948C13.4421 27.4334 13.9402 27.62 14.4556 27.62C14.9711 27.62 15.4692 27.4334 15.8579 27.0948C16.2466 26.7562 16.4996 26.2884 16.5702 25.7778H12.3411Z" fill="#F87676"/>
</g>
<defs>
<clipPath id="clip0_19_1729">
<rect width="29" height="29" fill="white"/>
</clipPath>
</defs>
</svg>
