<svg width="29" height="29" viewBox="0 0 29 29" fill="none" xmlns="http://www.w3.org/2000/svg">
<g clip-path="url(#clip0_17_1717)">
<path d="M24.8671 3.28647C24.2731 2.85237 22.7642 2.71553 22.1302 2.32267C20.2448 1.15678 17.609 -0.416471 17.463 2.87684C17.3212 6.09358 16.9211 8.48789 16.5559 10.0883C15.874 10.0066 15.1877 9.96666 14.501 9.9687C13.5956 9.9687 12.7777 10.0358 12.0283 10.1513C11.8334 8.88981 11.644 7.12897 11.5371 4.70701C11.3912 1.4137 8.75535 2.98695 6.86989 4.15284C6.23597 4.5457 4.72661 4.683 4.13302 5.11664C2.22989 6.50683 -0.227858 11.3815 1.48269 10.8813C2.55342 10.5686 4.4135 9.08375 5.18835 8.43895C6.21694 9.67326 7.07289 10.8704 7.72766 11.9982L7.7331 12.0078C6.69317 13.0024 6.197 14.3042 6.197 15.7905C6.197 18.6243 1.88144 22.7867 5.72756 25.5625C7.58447 26.9015 10.7903 28.0937 14.501 28.0937C18.2107 28.0937 21.4157 26.9015 23.273 25.5625C27.1182 22.7867 22.8031 18.6243 22.8031 15.7905C22.8031 14.0187 22.0917 12.5116 20.5987 11.4731C20.9671 10.647 21.867 8.94373 23.8122 6.60923C24.5871 7.25403 26.4467 8.73892 27.517 9.05158C29.2275 9.55137 26.7698 4.67665 24.8671 3.28647ZM5.54541 8.13717L5.54586 8.13672L8.65883 5.6119C9.29366 6.46786 9.99419 8.685 10.4922 10.4939C9.52385 10.787 8.72499 11.1949 8.09288 11.7005C7.55411 10.7793 6.74392 9.57493 5.54541 8.13717ZM20.6626 15.5426C21.0545 15.949 21.3794 16.4824 21.5099 17.0411C21.6517 17.6093 21.6255 18.2323 21.5022 18.8309C21.4428 19.1309 21.3572 19.4309 21.2471 19.7082L21.205 19.806C21.2033 19.8099 21.2011 19.8135 21.1986 19.8169C21.1986 19.8165 21.1986 19.8147 21.1995 19.8142L21.1791 19.8396C21.1374 19.8854 21.0916 19.9274 21.0423 19.9651C20.9381 20.0471 20.8198 20.1201 20.6938 20.1803C20.1881 20.42 19.6023 20.4998 19.0213 20.483C18.4345 20.4807 17.8487 20.3584 17.2628 20.2188C17.8117 20.4879 18.3965 20.6763 18.9991 20.7785C19.6041 20.8668 20.2434 20.8582 20.8542 20.6189C20.9906 20.5659 21.1234 20.4975 21.2534 20.4155C22.3364 20.5252 23.2046 20.8405 23.4719 21.4717C24.4312 23.731 19.9222 27.5459 14.5005 27.5459C9.07706 27.5459 4.56756 23.731 5.52728 21.4717C5.79553 20.8401 6.66372 20.5252 7.74578 20.415C7.87628 20.498 8.00995 20.5659 8.14544 20.6189C8.7558 20.8577 9.39561 20.8668 10.0005 20.7785C10.6031 20.6761 11.1879 20.4876 11.7369 20.2188C11.151 20.3584 10.5651 20.4807 9.97833 20.483C9.39742 20.4998 8.81108 20.42 8.30585 20.1803C8.18223 20.1214 8.0654 20.0493 7.95739 19.9651C7.90829 19.9271 7.86237 19.8851 7.8201 19.8396L7.80016 19.8142C7.80061 19.8147 7.80152 19.8165 7.80061 19.8165L7.79427 19.806L7.75258 19.7082C7.64137 19.424 7.55599 19.1304 7.49747 18.8309C7.37422 18.2323 7.34794 17.6088 7.48977 17.0411C7.62027 16.4828 7.94471 15.9495 8.33756 15.5426C8.73178 15.1302 9.24336 14.8806 9.78031 14.8969C9.91172 14.9028 10.0531 14.9195 10.1782 14.9531C10.3186 14.9898 10.4482 15.0337 10.5755 15.0931C10.8373 15.2128 11.0725 15.3835 11.2675 15.5952C11.683 16.0206 11.953 16.6183 12.1021 17.2472C12.0826 16.8638 11.9996 16.4862 11.8565 16.1298C12.4701 14.8457 13.1919 13.7065 13.7497 12.9725C14.2735 12.2815 14.7262 12.2815 15.25 12.9725C15.8073 13.7065 16.5292 14.8457 17.1427 16.1298C16.9994 16.4861 16.9164 16.8637 16.8971 17.2472C17.0466 16.6179 17.3167 16.0211 17.7318 15.5952C17.9265 15.3833 18.1618 15.2126 18.4237 15.0931C18.551 15.0337 18.681 14.9898 18.8211 14.9531C18.9457 14.9195 19.0875 14.9028 19.2194 14.8969C19.7572 14.8806 20.2679 15.1302 20.6626 15.5426ZM20.204 11.2139C19.6013 10.86 18.8868 10.5754 18.0612 10.367C18.4948 8.62065 19.4776 4.9449 20.3408 3.78083L23.4534 6.30564L23.4561 6.30745C21.533 8.61567 20.6077 10.3249 20.204 11.2139Z" fill="#FFFFFF"/>
<path d="M18.943 19.7336C19.7608 19.7336 20.4238 18.9205 20.4238 17.9174C20.4238 16.9144 19.7608 16.1013 18.943 16.1013C18.1251 16.1013 17.4622 16.9144 17.4622 17.9174C17.4622 18.9205 18.1251 19.7336 18.943 19.7336Z" fill="#FFFFFF"/>
<path d="M10.0584 19.7336C10.8763 19.7336 11.5393 18.9205 11.5393 17.9174C11.5393 16.9144 10.8763 16.1013 10.0584 16.1013C9.24062 16.1013 8.57764 16.9144 8.57764 17.9174C8.57764 18.9205 9.24062 19.7336 10.0584 19.7336Z" fill="#FFFFFF"/>
<path d="M14.9196 22.2684L14.7941 21.6934C15.1031 21.6508 15.4525 21.5357 15.8145 21.301C16.5794 20.8039 16.8014 20.2284 16.5137 19.996C16.11 19.6702 14.8707 19.6453 14.5005 19.6453C14.1307 19.6453 12.8905 19.6706 12.4872 19.996C12.1999 20.2284 12.422 20.8039 13.1873 21.301C13.5493 21.5371 13.8996 21.6508 14.2082 21.6934L14.0809 22.2684C13.9853 22.6975 13.6617 23.0886 13.2186 23.3604C12.7867 23.6436 12.2076 23.7909 11.6585 23.8253C11.0522 23.8466 10.4826 23.7451 9.95833 23.4918C9.43951 23.2462 9.00858 22.8466 8.78882 22.3377C8.81872 22.8819 9.18757 23.4116 9.71591 23.7778C9.9384 23.9332 10.1998 24.0542 10.4735 24.152C11.01 24.9346 12.3767 26.357 14.5014 26.357C16.6265 26.357 17.9936 24.9328 18.5292 24.1511C18.8015 24.0533 19.0603 23.9323 19.2859 23.7769C19.8138 23.4112 20.1826 22.8815 20.2144 22.3377C19.9955 22.847 19.5632 23.2467 19.0444 23.4923C18.5292 23.746 17.9329 23.8489 17.3565 23.8267C16.7756 23.7923 16.2246 23.6441 15.7828 23.3609C15.3401 23.0881 15.0143 22.698 14.9196 22.2684ZM16.008 24.969H12.9929V24.1969C13.233 24.124 13.4654 24.0281 13.6871 23.9105C13.9994 23.7353 14.2753 23.502 14.5 23.2231C14.7248 23.5018 15.0009 23.7349 15.3134 23.9096C15.5347 24.0283 15.7674 24.1242 16.008 24.196V24.969Z" fill="#FFFFFF"/>
</g>
<defs>
<clipPath id="clip0_17_1717">
<rect width="29" height="29" fill="#F87676"/>
</clipPath>
</defs>
</svg>
