<svg width="16" height="16" viewBox="0 0 16 16" fill="none" xmlns="http://www.w3.org/2000/svg">
<g clip-path="url(#clip0_29_652)">
<path d="M15.5 8C15.5 12.15 12.8 15.5 8 15.5C3.85 15.5 0.5 12.15 0.5 8C0.5 3.85 3.85 0.5 8 0.5C12.15 0.5 15.5 3.85 15.5 8Z" fill="#F87676"/>
<path d="M6.70005 5.325C6.65005 5.225 6.52505 5.175 6.42505 5.25L5.92505 5.55L6.10005 4.3C6.10005 4.25 6.10005 4.2 6.07505 4.175L5.92505 3.875C5.90005 3.825 5.85005 3.8 5.80005 3.775C5.75005 3.75 5.70005 3.775 5.65005 3.8L4.42505 4.525C4.37505 4.55 4.35005 4.6 4.32505 4.65C4.30005 4.7 4.32505 4.75 4.35005 4.8L4.52505 5.125C4.57505 5.225 4.70005 5.275 4.80005 5.2L5.27505 4.925L5.10005 6.15C5.10005 6.2 5.10005 6.25 5.12505 6.275L5.30005 6.6C5.35005 6.675 5.42505 6.725 5.52505 6.7C5.55005 6.7 5.55005 6.7 5.57505 6.675L6.82505 5.95C6.87505 5.925 6.90005 5.875 6.92505 5.825C6.95005 5.775 6.92505 5.725 6.90005 5.675L6.70005 5.325ZM10.1251 2.025C10.1001 1.975 10.0501 1.95 10.0001 1.925L8.02505 1.425C7.92505 1.4 7.82505 1.475 7.80005 1.575L7.70005 2.05C7.70005 2.1 7.70005 2.15 7.72505 2.2C7.75005 2.25 7.80005 2.275 7.85005 2.3L8.75005 2.525L7.37505 3.7C7.35005 3.725 7.32505 3.775 7.30005 3.825L7.25005 4.325C7.25005 4.375 7.25005 4.425 7.27505 4.475C7.30005 4.525 7.35005 4.55 7.40005 4.575L9.40005 5.075H9.47505C9.50005 5.075 9.52505 5.05 9.55005 5.05C9.60005 5.025 9.62505 4.975 9.62505 4.925L9.72505 4.45C9.75005 4.35 9.67505 4.225 9.57505 4.2L8.62505 3.95L10.0001 2.75C10.0251 2.725 10.0501 2.675 10.0751 2.625L10.1751 2.175C10.1751 2.125 10.1501 2.075 10.1251 2.025ZM13.7501 5.6C13.8001 5.575 13.8251 5.55 13.8501 5.5L14.1501 4.875C14.2001 4.775 14.1501 4.675 14.0501 4.625L12.6001 3.925L15.1251 2.675C15.1751 2.65 15.2001 2.625 15.2001 2.575L15.4751 2C15.5251 1.9 15.4751 1.8 15.3751 1.75L12.7501 0.525002C12.6501 0.475002 12.5501 0.525002 12.5001 0.625002L12.2001 1.25C12.1501 1.35 12.2001 1.45 12.3001 1.5L13.6751 2.15L11.1751 3.375C11.1251 3.4 11.1001 3.425 11.1001 3.475L10.8001 4.1C10.7751 4.15 10.7751 4.2 10.8001 4.25C10.8001 4.275 10.8251 4.3 10.8501 4.325C10.8751 4.35 10.8751 4.35 10.9001 4.35L13.6001 5.625C13.6501 5.625 13.7001 5.625 13.7501 5.6Z" fill="#555555"/>
<path d="M12.5 11.3C12.7 11.6 12.775 12.2 12.35 12.475C12 12.7 11.425 12.65 11 12.925C10.55 13.225 10.375 13.75 10.025 13.975C9.54996 14.275 9.09996 13.925 8.89996 13.625C8.54996 13.075 9.07496 12.1 10.075 11.475C11.05 10.825 12.15 10.75 12.5 11.3ZM9.57496 8.4C11.375 9.75 13.3 8.85 13.4 6.625C13.4 6.5 13.25 6.525 13.05 6.5C12.45 7.7 10.875 8.35 9.67496 8.075C9.59996 8.25 9.49996 8.35 9.57496 8.4ZM3.97496 11.025C5.77496 12.375 7.69996 11.475 7.79996 9.25C7.79996 9.125 7.64996 9.15 7.44996 9.125C6.84996 10.325 5.27496 10.975 4.07496 10.7C3.99996 10.85 3.87496 10.95 3.97496 11.025Z" fill="#664E27"/>
</g>
<defs>
<clipPath id="clip0_29_652">
<rect width="16" height="16" fill="white"/>
</clipPath>
</defs>
</svg>
